<?xml version="1.0" encoding="UTF-8" standalone="no"?>
<!DOCTYPE svg PUBLIC "-//W3C//DTD SVG 1.1//EN"
 "http://www.w3.org/Graphics/SVG/1.1/DTD/svg11.dtd">
<!-- Generated by graphviz version 10.0.1 (20240210.2158)
 -->
<!-- Title: snakemake_dag Pages: 1 -->
<svg width="1553pt" height="3004pt"
 viewBox="0.00 0.00 1553.00 3003.50" xmlns="http://www.w3.org/2000/svg" xmlns:xlink="http://www.w3.org/1999/xlink">
<g id="graph0" class="graph" transform="scale(1 1) rotate(0) translate(4 2999.5)">
<title>snakemake_dag</title>
<polygon fill="white" stroke="none" points="-4,4 -4,-2999.5 1549,-2999.5 1549,4 -4,4"/>
<!-- 0 -->
<g id="node1" class="node">
<title>0</title>
<text text-anchor="start" x="569" y="-96.15" font-family="sans" font-weight="bold" font-size="18.00">dump_spgc_gene_content</text>
<text text-anchor="start" x="545" y="-74.2" font-family="sans" font-size="10.00"> </text>
<text text-anchor="start" x="548" y="-74.2" font-family="sans" font-weight="bold" font-size="14.00">↪ input</text>
<text text-anchor="start" x="599" y="-74.2" font-family="sans" font-size="10.00"> </text>
<text text-anchor="start" x="545" y="-52" font-family="monospace" font-size="10.00">results/species/{species}/spgc/spgc.results.nc</text>
<text text-anchor="start" x="755" y="-30.95" font-family="sans" font-size="10.00"> </text>
<text text-anchor="start" x="758" y="-30.95" font-family="sans" font-weight="bold" font-size="14.00">output →</text>
<text text-anchor="start" x="818" y="-30.95" font-family="sans" font-size="10.00"> </text>
<text text-anchor="start" x="545" y="-8.75" font-family="monospace" font-size="10.00">results/species/{species}/spgc.gene.tsv</text>
<polygon fill="#d97c57" stroke="#d97c57" points="539,-90.5 539,-90.5 828,-90.5 828,-90.5 539,-90.5"/>
<polygon fill="#d97c57" stroke="#d97c57" points="539,-47.25 539,-47.25 828,-47.25 828,-47.25 539,-47.25"/>
<polygon fill="none" stroke="#d97c57" stroke-width="2" points="539,-1 539,-118.25 827,-118.25 827,-1 539,-1"/>
</g>
<!-- 1 -->
<g id="node2" class="node">
<title>1</title>
<text text-anchor="start" x="796.5" y="-287.9" font-family="sans" font-weight="bold" font-size="18.00">run_spgc</text>
<text text-anchor="start" x="648" y="-265.95" font-family="sans" font-size="10.00"> </text>
<text text-anchor="start" x="651" y="-265.95" font-family="sans" font-weight="bold" font-size="14.00">↪ input</text>
<text text-anchor="start" x="702" y="-265.95" font-family="sans" font-size="10.00"> </text>
<text text-anchor="start" x="648" y="-243.75" font-family="monospace" font-size="10.00">results/species/{species}/midas/pangenome_profile.depth.tsv.bz2</text>
<text text-anchor="start" x="648" y="-225.5" font-family="monospace" font-size="10.00">results/species/{species}/spgc/species_genes.list</text>
<text text-anchor="start" x="648" y="-207.25" font-family="monospace" font-size="10.00">results/species/{species}/spgc/strain_pure_samples.tsv</text>
<text text-anchor="start" x="960" y="-186.2" font-family="sans" font-size="10.00"> </text>
<text text-anchor="start" x="963" y="-186.2" font-family="sans" font-weight="bold" font-size="14.00">output →</text>
<text text-anchor="start" x="1023" y="-186.2" font-family="sans" font-size="10.00"> </text>
<text text-anchor="start" x="648" y="-164" font-family="monospace" font-size="10.00">results/species/{species}/spgc/spgc.results.nc</text>
<polygon fill="#577cd9" stroke="#577cd9" points="642,-282.25 642,-282.25 1033,-282.25 1033,-282.25 642,-282.25"/>
<polygon fill="#577cd9" stroke="#577cd9" points="642,-202.5 642,-202.5 1033,-202.5 1033,-202.5 642,-202.5"/>
<polygon fill="none" stroke="#577cd9" stroke-width="2" points="642,-156.25 642,-310 1032,-310 1032,-156.25 642,-156.25"/>
</g>
<!-- 1&#45;&gt;0 -->
<g id="edge1" class="edge">
<title>1&#45;&gt;0</title>
<path fill="none" stroke="grey" stroke-width="2" d="M768.11,-155.4C760.05,-146.43 751.87,-137.32 743.93,-128.48"/>
<polygon fill="grey" stroke="grey" stroke-width="2" points="746.74,-126.37 737.45,-121.27 741.53,-131.05 746.74,-126.37"/>
</g>
<!-- 23 -->
<g id="node24" class="node">
<title>23</title>
<text text-anchor="start" x="885.62" y="-96.15" font-family="sans" font-weight="bold" font-size="18.00">dump_spgc_strain_stats</text>
<text text-anchor="start" x="853" y="-74.2" font-family="sans" font-size="10.00"> </text>
<text text-anchor="start" x="856" y="-74.2" font-family="sans" font-weight="bold" font-size="14.00">↪ input</text>
<text text-anchor="start" x="907" y="-74.2" font-family="sans" font-size="10.00"> </text>
<text text-anchor="start" x="853" y="-52" font-family="monospace" font-size="10.00">results/species/{species}/spgc/spgc.results.nc</text>
<text text-anchor="start" x="1063" y="-30.95" font-family="sans" font-size="10.00"> </text>
<text text-anchor="start" x="1066" y="-30.95" font-family="sans" font-weight="bold" font-size="14.00">output →</text>
<text text-anchor="start" x="1126" y="-30.95" font-family="sans" font-size="10.00"> </text>
<text text-anchor="start" x="853" y="-8.75" font-family="monospace" font-size="10.00">results/species/{species}/spgc.strain.tsv</text>
<polygon fill="#57d97c" stroke="#57d97c" points="847,-90.5 847,-90.5 1136,-90.5 1136,-90.5 847,-90.5"/>
<polygon fill="#57d97c" stroke="#57d97c" points="847,-47.25 847,-47.25 1136,-47.25 1136,-47.25 847,-47.25"/>
<polygon fill="none" stroke="#57d97c" stroke-width="2" points="847,-1 847,-118.25 1135,-118.25 1135,-1 847,-1"/>
</g>
<!-- 1&#45;&gt;23 -->
<g id="edge25" class="edge">
<title>1&#45;&gt;23</title>
<path fill="none" stroke="grey" stroke-width="2" d="M905.89,-155.4C913.95,-146.43 922.13,-137.32 930.07,-128.48"/>
<polygon fill="grey" stroke="grey" stroke-width="2" points="932.47,-131.05 936.55,-121.27 927.26,-126.37 932.47,-131.05"/>
</g>
<!-- 2 -->
<g id="node3" class="node">
<title>2</title>
<text text-anchor="start" x="237.75" y="-1584.53" font-family="sans" font-weight="bold" font-size="18.00">merge_and_aggregate_pangenome_profiles</text>
<text text-anchor="start" x="195" y="-1562.58" font-family="sans" font-size="10.00"> </text>
<text text-anchor="start" x="198" y="-1562.58" font-family="sans" font-weight="bold" font-size="14.00">↪ input</text>
<text text-anchor="start" x="249" y="-1562.58" font-family="sans" font-size="10.00"> </text>
<text text-anchor="start" x="195" y="-1540.38" font-family="monospace" font-size="10.00">results/reads/HSM67VDP/midas/pangenome_profile_raw.gene_mapping_tally.tsv.bz2</text>
<text text-anchor="start" x="195" y="-1522.12" font-family="monospace" font-size="10.00">results/reads/HSM6XRSI/midas/pangenome_profile_raw.gene_mapping_tally.tsv.bz2</text>
<text text-anchor="start" x="195" y="-1503.88" font-family="monospace" font-size="10.00">results/reads/MSM79HCG/midas/pangenome_profile_raw.gene_mapping_tally.tsv.bz2</text>
<text text-anchor="start" x="195" y="-1485.62" font-family="monospace" font-size="10.00">results/reads/MSM79HCI/midas/pangenome_profile_raw.gene_mapping_tally.tsv.bz2</text>
<text text-anchor="start" x="195" y="-1467.38" font-family="monospace" font-size="10.00">results/reads/PSM6XBW3/midas/pangenome_profile_raw.gene_mapping_tally.tsv.bz2</text>
<text text-anchor="start" x="195" y="-1449.12" font-family="monospace" font-size="10.00">results/reads/PSM7J1A2/midas/pangenome_profile_raw.gene_mapping_tally.tsv.bz2</text>
<text text-anchor="start" x="195" y="-1430.88" font-family="monospace" font-size="10.00">results/species/{species}/midas/clusters_99_info.tsv</text>
<text text-anchor="start" x="195" y="-1412.62" font-family="monospace" font-size="10.00">workflow/scripts/merge_and_aggregate_pangenome_profiles.py</text>
<text text-anchor="start" x="591" y="-1391.58" font-family="sans" font-size="10.00"> </text>
<text text-anchor="start" x="594" y="-1391.58" font-family="sans" font-weight="bold" font-size="14.00">output →</text>
<text text-anchor="start" x="654" y="-1391.58" font-family="sans" font-size="10.00"> </text>
<text text-anchor="start" x="195" y="-1369.38" font-family="monospace" font-size="10.00">results/species/{species}/midas/pangenome_profile.depth.tsv.bz2</text>
<polygon fill="#d98e57" stroke="#d98e57" points="189,-1578.88 189,-1578.88 664,-1578.88 664,-1578.88 189,-1578.88"/>
<polygon fill="#d98e57" stroke="#d98e57" points="189,-1407.88 189,-1407.88 664,-1407.88 664,-1407.88 189,-1407.88"/>
<polygon fill="none" stroke="#d98e57" stroke-width="2" points="189,-1361.62 189,-1606.62 663,-1606.62 663,-1361.62 189,-1361.62"/>
</g>
<!-- 2&#45;&gt;1 -->
<g id="edge4" class="edge">
<title>2&#45;&gt;1</title>
<path fill="none" stroke="grey" stroke-width="2" d="M426.45,-1361.04C426.71,-1277.68 427,-1164.73 427,-1065.12 427,-1065.12 427,-1065.12 427,-560.88 427,-465.45 385.32,-420.65 446,-347 471.16,-316.46 549.15,-291.04 628.92,-272.1"/>
<polygon fill="grey" stroke="grey" stroke-width="2" points="629.32,-275.6 638.26,-269.93 627.73,-268.79 629.32,-275.6"/>
</g>
<!-- 3 -->
<g id="node4" class="node">
<title>3</title>
<text text-anchor="start" x="342.75" y="-1794.53" font-family="sans" font-weight="bold" font-size="18.00">midas_profile_genes</text>
<text text-anchor="start" x="207" y="-1772.58" font-family="sans" font-size="10.00"> </text>
<text text-anchor="start" x="210" y="-1772.58" font-family="sans" font-weight="bold" font-size="14.00">↪ input</text>
<text text-anchor="start" x="261" y="-1772.58" font-family="sans" font-size="10.00"> </text>
<text text-anchor="start" x="207" y="-1750.38" font-family="monospace" font-size="10.00">results/reads/{mgen}/midas/pangenome_profile_raw.bam</text>
<text text-anchor="start" x="591" y="-1729.33" font-family="sans" font-size="10.00"> </text>
<text text-anchor="start" x="594" y="-1729.33" font-family="sans" font-weight="bold" font-size="14.00">output →</text>
<text text-anchor="start" x="654" y="-1729.33" font-family="sans" font-size="10.00"> </text>
<text text-anchor="start" x="207" y="-1707.12" font-family="monospace" font-size="10.00">results/reads/{mgen}/midas/pangenome_profile_raw.gene_mapping_tally.tsv.bz2</text>
<polygon fill="#d9c657" stroke="#d9c657" points="201,-1788.88 201,-1788.88 664,-1788.88 664,-1788.88 201,-1788.88"/>
<polygon fill="#d9c657" stroke="#d9c657" points="201,-1745.62 201,-1745.62 664,-1745.62 664,-1745.62 201,-1745.62"/>
<polygon fill="none" stroke="#d9c657" stroke-width="2" points="201,-1699.38 201,-1816.62 663,-1816.62 663,-1699.38 201,-1699.38"/>
</g>
<!-- 3&#45;&gt;2 -->
<g id="edge5" class="edge">
<title>3&#45;&gt;2</title>
<path fill="none" stroke="grey" stroke-width="2" d="M430.71,-1698.68C430.2,-1675.54 429.59,-1647.89 428.98,-1620.29"/>
<polygon fill="grey" stroke="grey" stroke-width="2" points="432.49,-1620.57 428.77,-1610.65 425.49,-1620.72 432.49,-1620.57"/>
</g>
<!-- 4 -->
<g id="node5" class="node">
<title>4</title>
<text text-anchor="start" x="381" y="-2013.65" font-family="sans" font-weight="bold" font-size="18.00">run_midas_genes_align_only</text>
<text text-anchor="start" x="351" y="-1991.7" font-family="sans" font-size="10.00"> </text>
<text text-anchor="start" x="354" y="-1991.7" font-family="sans" font-weight="bold" font-size="14.00">↪ input</text>
<text text-anchor="start" x="405" y="-1991.7" font-family="sans" font-size="10.00"> </text>
<text text-anchor="start" x="351" y="-1969.5" font-family="monospace" font-size="10.00">results/pangenomes.bt2.d</text>
<text text-anchor="start" x="351" y="-1951.25" font-family="monospace" font-size="10.00">results/reads/{mgen}/preprocess/r1.proc.fq.gz</text>
<text text-anchor="start" x="351" y="-1933" font-family="monospace" font-size="10.00">results/reads/{mgen}/preprocess/r2.proc.fq.gz</text>
<text text-anchor="start" x="351" y="-1914.75" font-family="monospace" font-size="10.00">species.list</text>
<text text-anchor="start" x="597" y="-1893.7" font-family="sans" font-size="10.00"> </text>
<text text-anchor="start" x="600" y="-1893.7" font-family="sans" font-weight="bold" font-size="14.00">output →</text>
<text text-anchor="start" x="660" y="-1893.7" font-family="sans" font-size="10.00"> </text>
<text text-anchor="start" x="351" y="-1871.5" font-family="monospace" font-size="10.00">results/reads/{mgen}/midas/pangenome_profile_raw.bam</text>
<polygon fill="#57b4d9" stroke="#57b4d9" points="345,-2008 345,-2008 670,-2008 670,-2008 345,-2008"/>
<polygon fill="#57b4d9" stroke="#57b4d9" points="345,-1910 345,-1910 670,-1910 670,-1910 345,-1910"/>
<polygon fill="none" stroke="#57b4d9" stroke-width="2" points="345,-1863.75 345,-2035.75 669,-2035.75 669,-1863.75 345,-1863.75"/>
</g>
<!-- 4&#45;&gt;3 -->
<g id="edge7" class="edge">
<title>4&#45;&gt;3</title>
<path fill="none" stroke="grey" stroke-width="2" d="M473.01,-1862.76C468.62,-1851.64 464.16,-1840.37 459.88,-1829.54"/>
<polygon fill="grey" stroke="grey" stroke-width="2" points="463.18,-1828.37 456.25,-1820.36 456.67,-1830.95 463.18,-1828.37"/>
</g>
<!-- 5 -->
<g id="node6" class="node">
<title>5</title>
<text text-anchor="start" x="246.5" y="-2187.15" font-family="sans" font-weight="bold" font-size="18.00">build_midas_pangenomes_bowtie_index</text>
<text text-anchor="start" x="246.5" y="-2165.2" font-family="sans" font-size="10.00"> </text>
<text text-anchor="start" x="249.5" y="-2165.2" font-family="sans" font-weight="bold" font-size="14.00">↪ input</text>
<text text-anchor="start" x="300.5" y="-2165.2" font-family="sans" font-size="10.00"> </text>
<text text-anchor="start" x="246.5" y="-2143" font-family="monospace" font-size="10.00">results/midasdb_initialized.flag</text>
<text text-anchor="start" x="246.5" y="-2124.75" font-family="monospace" font-size="10.00">species.list</text>
<text text-anchor="start" x="531.5" y="-2103.7" font-family="sans" font-size="10.00"> </text>
<text text-anchor="start" x="534.5" y="-2103.7" font-family="sans" font-weight="bold" font-size="14.00">output →</text>
<text text-anchor="start" x="594.5" y="-2103.7" font-family="sans" font-size="10.00"> </text>
<text text-anchor="start" x="246.5" y="-2081.5" font-family="monospace" font-size="10.00">results/pangenomes.bt2.d</text>
<polygon fill="#b4d957" stroke="#b4d957" points="240.5,-2181.5 240.5,-2181.5 604.5,-2181.5 604.5,-2181.5 240.5,-2181.5"/>
<polygon fill="#b4d957" stroke="#b4d957" points="240.5,-2120 240.5,-2120 604.5,-2120 604.5,-2120 240.5,-2120"/>
<polygon fill="none" stroke="#b4d957" stroke-width="2" points="240.5,-2073.75 240.5,-2209.25 603.5,-2209.25 603.5,-2073.75 240.5,-2073.75"/>
</g>
<!-- 5&#45;&gt;4 -->
<g id="edge9" class="edge">
<title>5&#45;&gt;4</title>
<path fill="none" stroke="grey" stroke-width="2" d="M452.33,-2072.8C455.89,-2064.84 459.58,-2056.61 463.28,-2048.34"/>
<polygon fill="grey" stroke="grey" stroke-width="2" points="466.38,-2049.99 467.28,-2039.43 459.99,-2047.13 466.38,-2049.99"/>
</g>
<!-- 6 -->
<g id="node7" class="node">
<title>6</title>
<text text-anchor="start" x="166.62" y="-2369.78" font-family="sans" font-weight="bold" font-size="18.00">initialize_midasdb_for_species_list</text>
<text text-anchor="start" x="166.62" y="-2347.82" font-family="sans" font-size="10.00"> </text>
<text text-anchor="start" x="169.62" y="-2347.82" font-family="sans" font-weight="bold" font-size="14.00">↪ input</text>
<text text-anchor="start" x="220.62" y="-2347.82" font-family="sans" font-size="10.00"> </text>
<text text-anchor="start" x="166.62" y="-2325.62" font-family="monospace" font-size="10.00">species.list</text>
<text text-anchor="start" x="401.38" y="-2304.57" font-family="sans" font-size="10.00"> </text>
<text text-anchor="start" x="404.38" y="-2304.57" font-family="sans" font-weight="bold" font-size="14.00">output →</text>
<text text-anchor="start" x="464.38" y="-2304.57" font-family="sans" font-size="10.00"> </text>
<text text-anchor="start" x="166.62" y="-2282.38" font-family="monospace" font-size="10.00">results/midasdb_initialized.flag</text>
<polygon fill="#57d9a1" stroke="#57d9a1" points="160.62,-2364.12 160.62,-2364.12 474.38,-2364.12 474.38,-2364.12 160.62,-2364.12"/>
<polygon fill="#57d9a1" stroke="#57d9a1" points="160.62,-2320.88 160.62,-2320.88 474.38,-2320.88 474.38,-2320.88 160.62,-2320.88"/>
<polygon fill="none" stroke="#57d9a1" stroke-width="2" points="160.62,-2274.62 160.62,-2391.88 473.38,-2391.88 473.38,-2274.62 160.62,-2274.62"/>
</g>
<!-- 6&#45;&gt;5 -->
<g id="edge10" class="edge">
<title>6&#45;&gt;5</title>
<path fill="none" stroke="grey" stroke-width="2" d="M349.36,-2273.77C358.5,-2257.25 368.61,-2238.98 378.3,-2221.47"/>
<polygon fill="grey" stroke="grey" stroke-width="2" points="381.35,-2223.18 383.13,-2212.74 375.23,-2219.79 381.35,-2223.18"/>
</g>
<!-- 12 -->
<g id="node13" class="node">
<title>12</title>
<text text-anchor="start" x="17.88" y="-1986.28" font-family="sans" font-weight="bold" font-size="18.00">symlink_midasdb_gene_metadata</text>
<text text-anchor="start" x="7" y="-1964.33" font-family="sans" font-size="10.00"> </text>
<text text-anchor="start" x="10" y="-1964.33" font-family="sans" font-weight="bold" font-size="14.00">↪ input</text>
<text text-anchor="start" x="61" y="-1964.33" font-family="sans" font-size="10.00"> </text>
<text text-anchor="start" x="7" y="-1942.12" font-family="monospace" font-size="10.00">results/midasdb_initialized.flag</text>
<text text-anchor="start" x="253" y="-1921.08" font-family="sans" font-size="10.00"> </text>
<text text-anchor="start" x="256" y="-1921.08" font-family="sans" font-weight="bold" font-size="14.00">output →</text>
<text text-anchor="start" x="316" y="-1921.08" font-family="sans" font-size="10.00"> </text>
<text text-anchor="start" x="7" y="-1898.88" font-family="monospace" font-size="10.00">results/species/{species}/midas/clusters_99_info.tsv</text>
<polygon fill="#57d9d9" stroke="#57d9d9" points="1,-1980.62 1,-1980.62 326,-1980.62 326,-1980.62 1,-1980.62"/>
<polygon fill="#57d9d9" stroke="#57d9d9" points="1,-1937.38 1,-1937.38 326,-1937.38 326,-1937.38 1,-1937.38"/>
<polygon fill="none" stroke="#57d9d9" stroke-width="2" points="1,-1891.12 1,-2008.38 325,-2008.38 325,-1891.12 1,-1891.12"/>
</g>
<!-- 6&#45;&gt;12 -->
<g id="edge15" class="edge">
<title>6&#45;&gt;12</title>
<path fill="none" stroke="grey" stroke-width="2" d="M268.76,-2273.84C254.65,-2254.51 240.27,-2232.3 230,-2210.25 201.81,-2149.76 184.18,-2075.6 174.12,-2022.07"/>
<polygon fill="grey" stroke="grey" stroke-width="2" points="177.57,-2021.46 172.33,-2012.25 170.68,-2022.71 177.57,-2021.46"/>
</g>
<!-- 7 -->
<g id="node8" class="node">
<title>7</title>
<text text-anchor="start" x="718.25" y="-2178.03" font-family="sans" font-weight="bold" font-size="18.00">alias_preprocessed_reads</text>
<text text-anchor="start" x="638" y="-2156.07" font-family="sans" font-size="10.00"> </text>
<text text-anchor="start" x="641" y="-2156.07" font-family="sans" font-weight="bold" font-size="14.00">↪ input</text>
<text text-anchor="start" x="692" y="-2156.07" font-family="sans" font-size="10.00"> </text>
<text text-anchor="start" x="638" y="-2133.88" font-family="monospace" font-size="10.00">results/reads/{mgen}/preprocess/{stem}.dedup.deadapt.qtrim.fq.gz</text>
<text text-anchor="start" x="956" y="-2112.82" font-family="sans" font-size="10.00"> </text>
<text text-anchor="start" x="959" y="-2112.82" font-family="sans" font-weight="bold" font-size="14.00">output →</text>
<text text-anchor="start" x="1019" y="-2112.82" font-family="sans" font-size="10.00"> </text>
<text text-anchor="start" x="638" y="-2090.62" font-family="monospace" font-size="10.00">results/reads/{mgen}/preprocess/{stem}.proc.fq.gz</text>
<polygon fill="#8ed957" stroke="#8ed957" points="632,-2172.38 632,-2172.38 1029,-2172.38 1029,-2172.38 632,-2172.38"/>
<polygon fill="#8ed957" stroke="#8ed957" points="632,-2129.12 632,-2129.12 1029,-2129.12 1029,-2129.12 632,-2129.12"/>
<polygon fill="none" stroke="#8ed957" stroke-width="2" points="632,-2082.88 632,-2200.12 1028,-2200.12 1028,-2082.88 632,-2082.88"/>
</g>
<!-- 7&#45;&gt;4 -->
<g id="edge8" class="edge">
<title>7&#45;&gt;4</title>
<path fill="none" stroke="grey" stroke-width="2" d="M730.45,-2082.02C709.43,-2069.67 686.75,-2056.35 664.18,-2043.09"/>
<polygon fill="grey" stroke="grey" stroke-width="2" points="666.13,-2040.17 655.73,-2038.12 662.58,-2046.21 666.13,-2040.17"/>
</g>
<!-- 21 -->
<g id="node22" class="node">
<title>21</title>
<text text-anchor="start" x="796.25" y="-1995.4" font-family="sans" font-weight="bold" font-size="18.00">run_gtpro</text>
<text text-anchor="start" x="695" y="-1973.45" font-family="sans" font-size="10.00"> </text>
<text text-anchor="start" x="698" y="-1973.45" font-family="sans" font-weight="bold" font-size="14.00">↪ input</text>
<text text-anchor="start" x="749" y="-1973.45" font-family="sans" font-size="10.00"> </text>
<text text-anchor="start" x="695" y="-1951.25" font-family="monospace" font-size="10.00">ref/gtpro</text>
<text text-anchor="start" x="695" y="-1933" font-family="monospace" font-size="10.00">results/reads/{mgen}/preprocess/{r}.proc.fq.gz</text>
<text text-anchor="start" x="917" y="-1911.95" font-family="sans" font-size="10.00"> </text>
<text text-anchor="start" x="920" y="-1911.95" font-family="sans" font-weight="bold" font-size="14.00">output →</text>
<text text-anchor="start" x="980" y="-1911.95" font-family="sans" font-size="10.00"> </text>
<text text-anchor="start" x="695" y="-1889.75" font-family="monospace" font-size="10.00">results/reads/{mgen}/gtpro/{r}.snv_counts_raw.gz</text>
<polygon fill="#57d9b4" stroke="#57d9b4" points="689,-1989.75 689,-1989.75 990,-1989.75 990,-1989.75 689,-1989.75"/>
<polygon fill="#57d9b4" stroke="#57d9b4" points="689,-1928.25 689,-1928.25 990,-1928.25 990,-1928.25 689,-1928.25"/>
<polygon fill="none" stroke="#57d9b4" stroke-width="2" points="689,-1882 689,-2017.5 989,-2017.5 989,-1882 689,-1882"/>
</g>
<!-- 7&#45;&gt;21 -->
<g id="edge24" class="edge">
<title>7&#45;&gt;21</title>
<path fill="none" stroke="grey" stroke-width="2" d="M832.77,-2082.02C833.54,-2065.97 834.37,-2048.28 835.18,-2031.22"/>
<polygon fill="grey" stroke="grey" stroke-width="2" points="838.67,-2031.52 835.65,-2021.36 831.68,-2031.19 838.67,-2031.52"/>
</g>
<!-- 8 -->
<g id="node9" class="node">
<title>8</title>
<text text-anchor="start" x="750.5" y="-2397.15" font-family="sans" font-weight="bold" font-size="18.00">quality_trim_reads</text>
<text text-anchor="start" x="677" y="-2375.2" font-family="sans" font-size="10.00"> </text>
<text text-anchor="start" x="680" y="-2375.2" font-family="sans" font-weight="bold" font-size="14.00">↪ input</text>
<text text-anchor="start" x="731" y="-2375.2" font-family="sans" font-size="10.00"> </text>
<text text-anchor="start" x="677" y="-2353" font-family="monospace" font-size="10.00">results/reads/{mgen}/preprocess/r1{stem}fq.gz</text>
<text text-anchor="start" x="677" y="-2334.75" font-family="monospace" font-size="10.00">results/reads/{mgen}/preprocess/r2{stem}fq.gz</text>
<text text-anchor="start" x="917" y="-2313.7" font-family="sans" font-size="10.00"> </text>
<text text-anchor="start" x="920" y="-2313.7" font-family="sans" font-weight="bold" font-size="14.00">output →</text>
<text text-anchor="start" x="980" y="-2313.7" font-family="sans" font-size="10.00"> </text>
<text text-anchor="start" x="677" y="-2291.5" font-family="monospace" font-size="10.00">results/reads/{mgen}/preprocess/r1{stem}qtrim.fq.gz</text>
<text text-anchor="start" x="677" y="-2273.25" font-family="monospace" font-size="10.00">results/reads/{mgen}/preprocess/r2{stem}qtrim.fq.gz</text>
<text text-anchor="start" x="677" y="-2255" font-family="monospace" font-size="10.00">results/reads/{mgen}/preprocess/r3{stem}qtrim.fq.gz</text>
<polygon fill="#69d957" stroke="#69d957" points="671,-2391.5 671,-2391.5 990,-2391.5 990,-2391.5 671,-2391.5"/>
<polygon fill="#69d957" stroke="#69d957" points="671,-2330 671,-2330 990,-2330 990,-2330 671,-2330"/>
<polygon fill="none" stroke="#69d957" stroke-width="2" points="671,-2247.25 671,-2419.25 989,-2419.25 989,-2247.25 671,-2247.25"/>
</g>
<!-- 8&#45;&gt;7 -->
<g id="edge11" class="edge">
<title>8&#45;&gt;7</title>
<path fill="none" stroke="grey" stroke-width="2" d="M830,-2246.26C830,-2235.38 830,-2224.35 830,-2213.74"/>
<polygon fill="grey" stroke="grey" stroke-width="2" points="833.5,-2214.07 830,-2204.07 826.5,-2214.07 833.5,-2214.07"/>
</g>
<!-- 9 -->
<g id="node10" class="node">
<title>9</title>
<text text-anchor="start" x="771.12" y="-2570.65" font-family="sans" font-weight="bold" font-size="18.00">trim_adapters</text>
<text text-anchor="start" x="674" y="-2548.7" font-family="sans" font-size="10.00"> </text>
<text text-anchor="start" x="677" y="-2548.7" font-family="sans" font-weight="bold" font-size="14.00">↪ input</text>
<text text-anchor="start" x="728" y="-2548.7" font-family="sans" font-size="10.00"> </text>
<text text-anchor="start" x="674" y="-2526.5" font-family="monospace" font-size="10.00">ref/illumina_adapters.fa</text>
<text text-anchor="start" x="674" y="-2508.25" font-family="monospace" font-size="10.00">results/reads/{mgen}/preprocess/{stem}.fq.gz</text>
<text text-anchor="start" x="920" y="-2487.2" font-family="sans" font-size="10.00"> </text>
<text text-anchor="start" x="923" y="-2487.2" font-family="sans" font-weight="bold" font-size="14.00">output →</text>
<text text-anchor="start" x="983" y="-2487.2" font-family="sans" font-size="10.00"> </text>
<text text-anchor="start" x="674" y="-2465" font-family="monospace" font-size="10.00">results/reads/{mgen}/preprocess/{stem}.deadapt.fq.gz</text>
<polygon fill="#57a1d9" stroke="#57a1d9" points="668,-2565 668,-2565 993,-2565 993,-2565 668,-2565"/>
<polygon fill="#57a1d9" stroke="#57a1d9" points="668,-2503.5 668,-2503.5 993,-2503.5 993,-2503.5 668,-2503.5"/>
<polygon fill="none" stroke="#57a1d9" stroke-width="2" points="668,-2457.25 668,-2592.75 992,-2592.75 992,-2457.25 668,-2457.25"/>
</g>
<!-- 9&#45;&gt;8 -->
<g id="edge12" class="edge">
<title>9&#45;&gt;8</title>
<path fill="none" stroke="grey" stroke-width="2" d="M830,-2456.3C830,-2448.71 830,-2440.86 830,-2432.98"/>
<polygon fill="grey" stroke="grey" stroke-width="2" points="833.5,-2433.19 830,-2423.19 826.5,-2433.19 833.5,-2433.19"/>
</g>
<!-- 10 -->
<g id="node11" class="node">
<title>10</title>
<text text-anchor="start" x="751.25" y="-2780.65" font-family="sans" font-weight="bold" font-size="18.00">deduplicate_reads</text>
<text text-anchor="start" x="677" y="-2758.7" font-family="sans" font-size="10.00"> </text>
<text text-anchor="start" x="680" y="-2758.7" font-family="sans" font-weight="bold" font-size="14.00">↪ input</text>
<text text-anchor="start" x="731" y="-2758.7" font-family="sans" font-size="10.00"> </text>
<text text-anchor="start" x="677" y="-2736.5" font-family="monospace" font-size="10.00">results/reads/{mgen}/preprocess/r1{stem}fq.gz</text>
<text text-anchor="start" x="677" y="-2718.25" font-family="monospace" font-size="10.00">results/reads/{mgen}/preprocess/r2{stem}fq.gz</text>
<text text-anchor="start" x="677" y="-2700" font-family="monospace" font-size="10.00">workflow/scripts/fastuniq_wrapper.sh</text>
<text text-anchor="start" x="917" y="-2678.95" font-family="sans" font-size="10.00"> </text>
<text text-anchor="start" x="920" y="-2678.95" font-family="sans" font-weight="bold" font-size="14.00">output →</text>
<text text-anchor="start" x="980" y="-2678.95" font-family="sans" font-size="10.00"> </text>
<text text-anchor="start" x="677" y="-2656.75" font-family="monospace" font-size="10.00">results/reads/{mgen}/preprocess/r1{stem}dedup.fq.gz</text>
<text text-anchor="start" x="677" y="-2638.5" font-family="monospace" font-size="10.00">results/reads/{mgen}/preprocess/r2{stem}dedup.fq.gz</text>
<polygon fill="#d96957" stroke="#d96957" points="671,-2775 671,-2775 990,-2775 990,-2775 671,-2775"/>
<polygon fill="#d96957" stroke="#d96957" points="671,-2695.25 671,-2695.25 990,-2695.25 990,-2695.25 671,-2695.25"/>
<polygon fill="none" stroke="#d96957" stroke-width="2" points="671,-2630.75 671,-2802.75 989,-2802.75 989,-2630.75 671,-2630.75"/>
</g>
<!-- 10&#45;&gt;9 -->
<g id="edge13" class="edge">
<title>10&#45;&gt;9</title>
<path fill="none" stroke="grey" stroke-width="2" d="M830,-2629.76C830,-2621.97 830,-2614.1 830,-2606.36"/>
<polygon fill="grey" stroke="grey" stroke-width="2" points="833.5,-2606.53 830,-2596.53 826.5,-2606.53 833.5,-2606.53"/>
</g>
<!-- 11 -->
<g id="node12" class="node">
<title>11</title>
<text text-anchor="start" x="740.75" y="-2972.4" font-family="sans" font-weight="bold" font-size="18.00">symlink_input_reads</text>
<text text-anchor="start" x="710" y="-2950.45" font-family="sans" font-size="10.00"> </text>
<text text-anchor="start" x="713" y="-2950.45" font-family="sans" font-weight="bold" font-size="14.00">↪ input</text>
<text text-anchor="start" x="764" y="-2950.45" font-family="sans" font-size="10.00"> </text>
<text text-anchor="start" x="710" y="-2928.25" font-family="monospace" font-size="10.00">&lt;input function&gt;</text>
<text text-anchor="start" x="710" y="-2910" font-family="monospace" font-size="10.00">&lt;input function&gt;</text>
<text text-anchor="start" x="884" y="-2888.95" font-family="sans" font-size="10.00"> </text>
<text text-anchor="start" x="887" y="-2888.95" font-family="sans" font-weight="bold" font-size="14.00">output →</text>
<text text-anchor="start" x="947" y="-2888.95" font-family="sans" font-size="10.00"> </text>
<text text-anchor="start" x="710" y="-2866.75" font-family="monospace" font-size="10.00">results/reads/{mgen}/preprocess/r1.fq.gz</text>
<text text-anchor="start" x="710" y="-2848.5" font-family="monospace" font-size="10.00">results/reads/{mgen}/preprocess/r2.fq.gz</text>
<polygon fill="#578ed9" stroke="#578ed9" points="704,-2966.75 704,-2966.75 957,-2966.75 957,-2966.75 704,-2966.75"/>
<polygon fill="#578ed9" stroke="#578ed9" points="704,-2905.25 704,-2905.25 957,-2905.25 957,-2905.25 704,-2905.25"/>
<polygon fill="none" stroke="#578ed9" stroke-width="2" points="704,-2840.75 704,-2994.5 956,-2994.5 956,-2840.75 704,-2840.75"/>
</g>
<!-- 11&#45;&gt;10 -->
<g id="edge14" class="edge">
<title>11&#45;&gt;10</title>
<path fill="none" stroke="grey" stroke-width="2" d="M830,-2840.02C830,-2832.29 830,-2824.36 830,-2816.43"/>
<polygon fill="grey" stroke="grey" stroke-width="2" points="833.5,-2816.61 830,-2806.61 826.5,-2816.61 833.5,-2816.61"/>
</g>
<!-- 12&#45;&gt;2 -->
<g id="edge6" class="edge">
<title>12&#45;&gt;2</title>
<path fill="none" stroke="grey" stroke-width="2" d="M157.53,-1890.37C154.99,-1835.35 158.1,-1752.2 191,-1689.25 204.69,-1663.06 223.25,-1638.74 243.98,-1616.69"/>
<polygon fill="grey" stroke="grey" stroke-width="2" points="246.45,-1619.18 250.89,-1609.56 241.42,-1614.31 246.45,-1619.18"/>
</g>
<!-- 13 -->
<g id="node14" class="node">
<title>13</title>
<text text-anchor="start" x="735" y="-443.15" font-family="sans" font-weight="bold" font-size="18.00">identify_strain_samples</text>
<text text-anchor="start" x="462" y="-421.2" font-family="sans" font-size="10.00"> </text>
<text text-anchor="start" x="465" y="-421.2" font-family="sans" font-weight="bold" font-size="14.00">↪ input</text>
<text text-anchor="start" x="516" y="-421.2" font-family="sans" font-size="10.00"> </text>
<text text-anchor="start" x="462" y="-399" font-family="monospace" font-size="10.00">results/species/{species}/sfacts/snv_counts.filt&#45;poly05&#45;cvrg05.ss&#45;g10000&#45;block0&#45;seed0.sfacts&#45;s85&#45;seed0.strain_composition.tsv</text>
<text text-anchor="start" x="1146" y="-377.95" font-family="sans" font-size="10.00"> </text>
<text text-anchor="start" x="1149" y="-377.95" font-family="sans" font-weight="bold" font-size="14.00">output →</text>
<text text-anchor="start" x="1209" y="-377.95" font-family="sans" font-size="10.00"> </text>
<text text-anchor="start" x="462" y="-355.75" font-family="monospace" font-size="10.00">results/species/{species}/spgc/strain_pure_samples.tsv</text>
<polygon fill="#d9b457" stroke="#d9b457" points="456,-437.5 456,-437.5 1219,-437.5 1219,-437.5 456,-437.5"/>
<polygon fill="#d9b457" stroke="#d9b457" points="456,-394.25 456,-394.25 1219,-394.25 1219,-394.25 456,-394.25"/>
<polygon fill="none" stroke="#d9b457" stroke-width="2" points="456,-348 456,-465.25 1218,-465.25 1218,-348 456,-348"/>
</g>
<!-- 13&#45;&gt;1 -->
<g id="edge3" class="edge">
<title>13&#45;&gt;1</title>
<path fill="none" stroke="grey" stroke-width="2" d="M837,-347.08C837,-339.53 837,-331.67 837,-323.76"/>
<polygon fill="grey" stroke="grey" stroke-width="2" points="840.5,-323.93 837,-313.93 833.5,-323.93 840.5,-323.93"/>
</g>
<!-- 14 -->
<g id="node15" class="node">
<title>14</title>
<text text-anchor="start" x="748.12" y="-598.4" font-family="sans" font-weight="bold" font-size="18.00">export_sfacts_comm</text>
<text text-anchor="start" x="748.12" y="-576.45" font-family="sans" font-size="10.00"> </text>
<text text-anchor="start" x="751.12" y="-576.45" font-family="sans" font-weight="bold" font-size="14.00">↪ input</text>
<text text-anchor="start" x="802.12" y="-576.45" font-family="sans" font-size="10.00"> </text>
<text text-anchor="start" x="748.12" y="-554.25" font-family="monospace" font-size="10.00">{stem}.sfacts&#45;fit.nc</text>
<text text-anchor="start" x="859.88" y="-533.2" font-family="sans" font-size="10.00"> </text>
<text text-anchor="start" x="862.88" y="-533.2" font-family="sans" font-weight="bold" font-size="14.00">output →</text>
<text text-anchor="start" x="922.88" y="-533.2" font-family="sans" font-size="10.00"> </text>
<text text-anchor="start" x="748.12" y="-511" font-family="monospace" font-size="10.00">{stem}.strain_composition.tsv</text>
<polygon fill="#57d9c6" stroke="#57d9c6" points="742.12,-592.75 742.12,-592.75 932.88,-592.75 932.88,-592.75 742.12,-592.75"/>
<polygon fill="#57d9c6" stroke="#57d9c6" points="742.12,-549.5 742.12,-549.5 932.88,-549.5 932.88,-549.5 742.12,-549.5"/>
<polygon fill="none" stroke="#57d9c6" stroke-width="2" points="742.12,-503.25 742.12,-620.5 931.88,-620.5 931.88,-503.25 742.12,-503.25"/>
</g>
<!-- 14&#45;&gt;13 -->
<g id="edge16" class="edge">
<title>14&#45;&gt;13</title>
<path fill="none" stroke="grey" stroke-width="2" d="M837,-502.5C837,-494.77 837,-486.77 837,-478.85"/>
<polygon fill="grey" stroke="grey" stroke-width="2" points="840.5,-479.12 837,-469.12 833.5,-479.12 840.5,-479.12"/>
</g>
<!-- 15 -->
<g id="node16" class="node">
<title>15</title>
<text text-anchor="start" x="798" y="-790.15" font-family="sans" font-weight="bold" font-size="18.00">fit_sfacts</text>
<text text-anchor="start" x="567" y="-768.2" font-family="sans" font-size="10.00"> </text>
<text text-anchor="start" x="570" y="-768.2" font-family="sans" font-weight="bold" font-size="14.00">↪ input</text>
<text text-anchor="start" x="621" y="-768.2" font-family="sans" font-size="10.00"> </text>
<text text-anchor="start" x="567" y="-746" font-family="monospace" font-size="10.00">results/species/{species}/sfacts/{stem}.mgtp.nc</text>
<text text-anchor="start" x="567" y="-727.75" font-family="monospace" font-size="10.00">sfacts_strategy.args</text>
<text text-anchor="start" x="1041" y="-706.7" font-family="sans" font-size="10.00"> </text>
<text text-anchor="start" x="1044" y="-706.7" font-family="sans" font-weight="bold" font-size="14.00">output →</text>
<text text-anchor="start" x="1104" y="-706.7" font-family="sans" font-size="10.00"> </text>
<text text-anchor="start" x="567" y="-684.5" font-family="monospace" font-size="10.00">results/species/{species}/sfacts/{stem}.sfacts&#45;s{strain_exponent}&#45;seed{seed}.loss_history</text>
<text text-anchor="start" x="567" y="-666.25" font-family="monospace" font-size="10.00">results/species/{species}/sfacts/{stem}.sfacts&#45;s{strain_exponent}&#45;seed{seed}.sfacts&#45;fit.nc</text>
<polygon fill="#5769d9" stroke="#5769d9" points="561,-784.5 561,-784.5 1114,-784.5 1114,-784.5 561,-784.5"/>
<polygon fill="#5769d9" stroke="#5769d9" points="561,-723 561,-723 1114,-723 1114,-723 561,-723"/>
<polygon fill="none" stroke="#5769d9" stroke-width="2" points="561,-658.5 561,-812.25 1113,-812.25 1113,-658.5 561,-658.5"/>
</g>
<!-- 15&#45;&gt;14 -->
<g id="edge17" class="edge">
<title>15&#45;&gt;14</title>
<path fill="none" stroke="grey" stroke-width="2" d="M837,-657.65C837,-649.83 837,-641.9 837,-634.13"/>
<polygon fill="grey" stroke="grey" stroke-width="2" points="840.5,-634.29 837,-624.29 833.5,-634.29 840.5,-634.29"/>
</g>
<!-- 16 -->
<g id="node17" class="node">
<title>16</title>
<text text-anchor="start" x="743.5" y="-945.4" font-family="sans" font-weight="bold" font-size="18.00">subset_metagenotype</text>
<text text-anchor="start" x="544" y="-923.45" font-family="sans" font-size="10.00"> </text>
<text text-anchor="start" x="547" y="-923.45" font-family="sans" font-weight="bold" font-size="14.00">↪ input</text>
<text text-anchor="start" x="598" y="-923.45" font-family="sans" font-size="10.00"> </text>
<text text-anchor="start" x="544" y="-901.25" font-family="monospace" font-size="10.00">results/species/{species}/sfacts/{stem}.mgtp.nc</text>
<text text-anchor="start" x="1066" y="-880.2" font-family="sans" font-size="10.00"> </text>
<text text-anchor="start" x="1069" y="-880.2" font-family="sans" font-weight="bold" font-size="14.00">output →</text>
<text text-anchor="start" x="1129" y="-880.2" font-family="sans" font-size="10.00"> </text>
<text text-anchor="start" x="544" y="-858" font-family="monospace" font-size="10.00">results/species/{species}/sfacts/{stem}.ss&#45;g{num_positions}&#45;block{block_number}&#45;seed{seed}.mgtp.nc</text>
<polygon fill="#d95757" stroke="#d95757" points="538,-939.75 538,-939.75 1139,-939.75 1139,-939.75 538,-939.75"/>
<polygon fill="#d95757" stroke="#d95757" points="538,-896.5 538,-896.5 1139,-896.5 1139,-896.5 538,-896.5"/>
<polygon fill="none" stroke="#d95757" stroke-width="2" points="538,-850.25 538,-967.5 1138,-967.5 1138,-850.25 538,-850.25"/>
</g>
<!-- 16&#45;&gt;15 -->
<g id="edge18" class="edge">
<title>16&#45;&gt;15</title>
<path fill="none" stroke="grey" stroke-width="2" d="M837.66,-849.33C837.61,-841.78 837.57,-833.92 837.52,-826.01"/>
<polygon fill="grey" stroke="grey" stroke-width="2" points="841.02,-826.16 837.47,-816.18 834.02,-826.2 841.02,-826.16"/>
</g>
<!-- 17 -->
<g id="node18" class="node">
<title>17</title>
<text text-anchor="start" x="752.88" y="-1100.65" font-family="sans" font-weight="bold" font-size="18.00">filter_metagenotype</text>
<text text-anchor="start" x="574" y="-1078.7" font-family="sans" font-size="10.00"> </text>
<text text-anchor="start" x="577" y="-1078.7" font-family="sans" font-weight="bold" font-size="14.00">↪ input</text>
<text text-anchor="start" x="628" y="-1078.7" font-family="sans" font-size="10.00"> </text>
<text text-anchor="start" x="574" y="-1056.5" font-family="monospace" font-size="10.00">results/species/{species}/sfacts/{stem}.mgtp.nc</text>
<text text-anchor="start" x="1036" y="-1035.45" font-family="sans" font-size="10.00"> </text>
<text text-anchor="start" x="1039" y="-1035.45" font-family="sans" font-weight="bold" font-size="14.00">output →</text>
<text text-anchor="start" x="1099" y="-1035.45" font-family="sans" font-size="10.00"> </text>
<text text-anchor="start" x="574" y="-1013.25" font-family="monospace" font-size="10.00">results/species/{species}/sfacts/{stem}.filt&#45;poly{poly,[0&#45;9]+}&#45;cvrg{cvrg,[0&#45;9]+}.mgtp.nc</text>
<polygon fill="#57d957" stroke="#57d957" points="568,-1095 568,-1095 1109,-1095 1109,-1095 568,-1095"/>
<polygon fill="#57d957" stroke="#57d957" points="568,-1051.75 568,-1051.75 1109,-1051.75 1109,-1051.75 568,-1051.75"/>
<polygon fill="none" stroke="#57d957" stroke-width="2" points="568,-1005.5 568,-1122.75 1108,-1122.75 1108,-1005.5 568,-1005.5"/>
</g>
<!-- 17&#45;&gt;16 -->
<g id="edge19" class="edge">
<title>17&#45;&gt;16</title>
<path fill="none" stroke="grey" stroke-width="2" d="M838,-1004.75C838,-997.02 838,-989.02 838,-981.1"/>
<polygon fill="grey" stroke="grey" stroke-width="2" points="841.5,-981.37 838,-971.37 834.5,-981.37 841.5,-981.37"/>
</g>
<!-- 18 -->
<g id="node19" class="node">
<title>18</title>
<text text-anchor="start" x="663.62" y="-1255.9" font-family="sans" font-weight="bold" font-size="18.00">load_metagenotype_from_merged_gtpro</text>
<text text-anchor="start" x="663.62" y="-1233.95" font-family="sans" font-size="10.00"> </text>
<text text-anchor="start" x="666.62" y="-1233.95" font-family="sans" font-weight="bold" font-size="14.00">↪ input</text>
<text text-anchor="start" x="717.62" y="-1233.95" font-family="sans" font-size="10.00"> </text>
<text text-anchor="start" x="663.62" y="-1211.75" font-family="monospace" font-size="10.00">results/species/{species}/gtpro/snv_counts.tsv.bz2</text>
<text text-anchor="start" x="946.38" y="-1190.7" font-family="sans" font-size="10.00"> </text>
<text text-anchor="start" x="949.38" y="-1190.7" font-family="sans" font-weight="bold" font-size="14.00">output →</text>
<text text-anchor="start" x="1009.38" y="-1190.7" font-family="sans" font-size="10.00"> </text>
<text text-anchor="start" x="663.62" y="-1168.5" font-family="monospace" font-size="10.00">results/species/{species}/sfacts/snv_counts.mgtp.nc</text>
<polygon fill="#57d969" stroke="#57d969" points="657.62,-1250.25 657.62,-1250.25 1019.38,-1250.25 1019.38,-1250.25 657.62,-1250.25"/>
<polygon fill="#57d969" stroke="#57d969" points="657.62,-1207 657.62,-1207 1019.38,-1207 1019.38,-1207 657.62,-1207"/>
<polygon fill="none" stroke="#57d969" stroke-width="2" points="657.62,-1160.75 657.62,-1278 1018.38,-1278 1018.38,-1160.75 657.62,-1160.75"/>
</g>
<!-- 18&#45;&gt;17 -->
<g id="edge20" class="edge">
<title>18&#45;&gt;17</title>
<path fill="none" stroke="grey" stroke-width="2" d="M838,-1160C838,-1152.27 838,-1144.27 838,-1136.35"/>
<polygon fill="grey" stroke="grey" stroke-width="2" points="841.5,-1136.62 838,-1126.62 834.5,-1136.62 841.5,-1136.62"/>
</g>
<!-- 19 -->
<g id="node20" class="node">
<title>19</title>
<text text-anchor="start" x="695.38" y="-1630.15" font-family="sans" font-weight="bold" font-size="18.00">merge_gtpro_counts_for_species</text>
<text text-anchor="start" x="689" y="-1608.2" font-family="sans" font-size="10.00"> </text>
<text text-anchor="start" x="692" y="-1608.2" font-family="sans" font-weight="bold" font-size="14.00">↪ input</text>
<text text-anchor="start" x="743" y="-1608.2" font-family="sans" font-size="10.00"> </text>
<text text-anchor="start" x="689" y="-1586" font-family="monospace" font-size="10.00">results/reads/HSM67VDP/gtpro/r1.snv_counts.tsv.bz2</text>
<text text-anchor="start" x="689" y="-1567.75" font-family="monospace" font-size="10.00">results/reads/HSM67VDP/gtpro/r2.snv_counts.tsv.bz2</text>
<text text-anchor="start" x="689" y="-1549.5" font-family="monospace" font-size="10.00">results/reads/HSM6XRSI/gtpro/r1.snv_counts.tsv.bz2</text>
<text text-anchor="start" x="689" y="-1531.25" font-family="monospace" font-size="10.00">results/reads/HSM6XRSI/gtpro/r2.snv_counts.tsv.bz2</text>
<text text-anchor="start" x="689" y="-1513" font-family="monospace" font-size="10.00">results/reads/MSM79HCG/gtpro/r1.snv_counts.tsv.bz2</text>
<text text-anchor="start" x="689" y="-1494.75" font-family="monospace" font-size="10.00">results/reads/MSM79HCG/gtpro/r2.snv_counts.tsv.bz2</text>
<text text-anchor="start" x="689" y="-1476.5" font-family="monospace" font-size="10.00">results/reads/MSM79HCI/gtpro/r1.snv_counts.tsv.bz2</text>
<text text-anchor="start" x="689" y="-1458.25" font-family="monospace" font-size="10.00">results/reads/MSM79HCI/gtpro/r2.snv_counts.tsv.bz2</text>
<text text-anchor="start" x="689" y="-1440" font-family="monospace" font-size="10.00">results/reads/PSM6XBW3/gtpro/r1.snv_counts.tsv.bz2</text>
<text text-anchor="start" x="689" y="-1421.75" font-family="monospace" font-size="10.00">results/reads/PSM6XBW3/gtpro/r2.snv_counts.tsv.bz2</text>
<text text-anchor="start" x="689" y="-1403.5" font-family="monospace" font-size="10.00">results/reads/PSM7J1A2/gtpro/r1.snv_counts.tsv.bz2</text>
<text text-anchor="start" x="689" y="-1385.25" font-family="monospace" font-size="10.00">results/reads/PSM7J1A2/gtpro/r2.snv_counts.tsv.bz2</text>
<text text-anchor="start" x="689" y="-1367" font-family="monospace" font-size="10.00">workflow/scripts/merge_gtpro_counts_for_species.py</text>
<text text-anchor="start" x="923" y="-1345.95" font-family="sans" font-size="10.00"> </text>
<text text-anchor="start" x="926" y="-1345.95" font-family="sans" font-weight="bold" font-size="14.00">output →</text>
<text text-anchor="start" x="986" y="-1345.95" font-family="sans" font-size="10.00"> </text>
<text text-anchor="start" x="689" y="-1323.75" font-family="monospace" font-size="10.00">results/species/{species}/gtpro/snv_counts.tsv.bz2</text>
<polygon fill="#d9d957" stroke="#d9d957" points="683,-1624.5 683,-1624.5 996,-1624.5 996,-1624.5 683,-1624.5"/>
<polygon fill="#d9d957" stroke="#d9d957" points="683,-1362.25 683,-1362.25 996,-1362.25 996,-1362.25 683,-1362.25"/>
<polygon fill="none" stroke="#d9d957" stroke-width="2" points="683,-1316 683,-1652.25 995,-1652.25 995,-1316 683,-1316"/>
</g>
<!-- 19&#45;&gt;18 -->
<g id="edge21" class="edge">
<title>19&#45;&gt;18</title>
<path fill="none" stroke="grey" stroke-width="2" d="M838.36,-1315.23C838.33,-1307.15 838.3,-1299.27 838.27,-1291.72"/>
<polygon fill="grey" stroke="grey" stroke-width="2" points="841.77,-1291.97 838.23,-1281.98 834.77,-1291.99 841.77,-1291.97"/>
</g>
<!-- 20 -->
<g id="node21" class="node">
<title>20</title>
<text text-anchor="start" x="705.12" y="-1803.65" font-family="sans" font-weight="bold" font-size="18.00">gtpro_finish_processing_reads</text>
<text text-anchor="start" x="692" y="-1781.7" font-family="sans" font-size="10.00"> </text>
<text text-anchor="start" x="695" y="-1781.7" font-family="sans" font-weight="bold" font-size="14.00">↪ input</text>
<text text-anchor="start" x="746" y="-1781.7" font-family="sans" font-size="10.00"> </text>
<text text-anchor="start" x="692" y="-1759.5" font-family="monospace" font-size="10.00">ref/gtpro/variants_main.covered.hq.snp_dict.tsv</text>
<text text-anchor="start" x="692" y="-1741.25" font-family="monospace" font-size="10.00">results/reads/{mgen}/gtpro/{r}.snv_counts_raw.gz</text>
<text text-anchor="start" x="920" y="-1720.2" font-family="sans" font-size="10.00"> </text>
<text text-anchor="start" x="923" y="-1720.2" font-family="sans" font-weight="bold" font-size="14.00">output →</text>
<text text-anchor="start" x="983" y="-1720.2" font-family="sans" font-size="10.00"> </text>
<text text-anchor="start" x="692" y="-1698" font-family="monospace" font-size="10.00">results/reads/{mgen}/gtpro/{r}.snv_counts.tsv.bz2</text>
<polygon fill="#57d98e" stroke="#57d98e" points="686,-1798 686,-1798 993,-1798 993,-1798 686,-1798"/>
<polygon fill="#57d98e" stroke="#57d98e" points="686,-1736.5 686,-1736.5 993,-1736.5 993,-1736.5 686,-1736.5"/>
<polygon fill="none" stroke="#57d98e" stroke-width="2" points="686,-1690.25 686,-1825.75 992,-1825.75 992,-1690.25 686,-1690.25"/>
</g>
<!-- 20&#45;&gt;19 -->
<g id="edge22" class="edge">
<title>20&#45;&gt;19</title>
<path fill="none" stroke="grey" stroke-width="2" d="M839,-1689.45C839,-1681.96 839,-1674.11 839,-1666.01"/>
<polygon fill="grey" stroke="grey" stroke-width="2" points="842.5,-1666.14 839,-1656.14 835.5,-1666.14 842.5,-1666.14"/>
</g>
<!-- 21&#45;&gt;20 -->
<g id="edge23" class="edge">
<title>21&#45;&gt;20</title>
<path fill="none" stroke="grey" stroke-width="2" d="M839,-1881.05C839,-1867.52 839,-1853.19 839,-1839.29"/>
<polygon fill="grey" stroke="grey" stroke-width="2" points="842.5,-1839.7 839,-1829.7 835.5,-1839.7 842.5,-1839.7"/>
</g>
<!-- 22 -->
<g id="node23" class="node">
<title>22</title>
<text text-anchor="start" x="1283.75" y="-443.15" font-family="sans" font-weight="bold" font-size="18.00">write_species_genes_list</text>
<text text-anchor="start" x="1244" y="-421.2" font-family="sans" font-size="10.00"> </text>
<text text-anchor="start" x="1247" y="-421.2" font-family="sans" font-weight="bold" font-size="14.00">↪ input</text>
<text text-anchor="start" x="1298" y="-421.2" font-family="sans" font-size="10.00"> </text>
<text text-anchor="start" x="1244" y="-399" font-family="monospace" font-size="10.00">ref/midasdb_v2_centroid_75_marker_genes.tar.gz</text>
<text text-anchor="start" x="1472" y="-377.95" font-family="sans" font-size="10.00"> </text>
<text text-anchor="start" x="1475" y="-377.95" font-family="sans" font-weight="bold" font-size="14.00">output →</text>
<text text-anchor="start" x="1535" y="-377.95" font-family="sans" font-size="10.00"> </text>
<text text-anchor="start" x="1244" y="-355.75" font-family="monospace" font-size="10.00">results/species/{species}/spgc/species_genes.list</text>
<polygon fill="#d9a157" stroke="#d9a157" points="1238,-437.5 1238,-437.5 1545,-437.5 1545,-437.5 1238,-437.5"/>
<polygon fill="#d9a157" stroke="#d9a157" points="1238,-394.25 1238,-394.25 1545,-394.25 1545,-394.25 1238,-394.25"/>
<polygon fill="none" stroke="#d9a157" stroke-width="2" points="1238,-348 1238,-465.25 1544,-465.25 1544,-348 1238,-348"/>
</g>
<!-- 22&#45;&gt;1 -->
<g id="edge2" class="edge">
<title>22&#45;&gt;1</title>
<path fill="none" stroke="grey" stroke-width="2" d="M1237.09,-349.97C1234.04,-348.96 1231,-347.97 1228,-347 1168.97,-327.88 1104.42,-308.6 1045.09,-291.51"/>
<polygon fill="grey" stroke="grey" stroke-width="2" points="1046.39,-288.25 1035.81,-288.85 1044.46,-294.97 1046.39,-288.25"/>
</g>
</g>
</svg>
